<svg width="44" height="48" viewBox="0 0 44 48" fill="none" xmlns="http://www.w3.org/2000/svg">
<path d="M42.9595 11.6984L22.3989 0.104766C22.1512 -0.0349218 21.8484 -0.0349218 21.6007 0.104766L1.0399 11.6984C0.784433 11.8425 0.626465 12.1131 0.626465 12.4063V35.5936C0.626465 35.8869 0.784433 36.1574 1.0399 36.3014L14.2135 43.7297C14.2192 43.733 14.2248 43.7363 14.2307 43.7393L21.6007 47.8952C21.7245 47.965 21.8622 48 21.9999 48C22.1376 48 22.275 47.9651 22.399 47.8952L42.9598 36.3015C43.2153 36.1574 43.3732 35.8869 43.3732 35.5937V12.4063C43.3731 12.113 43.215 11.8424 42.9595 11.6984ZM33.5223 8.24273L28.1123 11.2932L28.1325 9.42969C28.1348 9.21266 28.0502 9.00379 27.8976 8.84948C27.7449 8.69516 27.5369 8.60826 27.3199 8.60826H23.4605L28.8153 5.58848L33.5223 8.24273ZM13.7994 41.6305L9.06358 38.9602V37.0044C9.06358 36.5557 8.69974 36.1918 8.25096 36.1918C7.80218 36.1918 7.43833 36.5557 7.43833 37.0044V38.0438L2.25143 35.1189V13.7973L7.43833 16.7221V34.2958C7.43833 34.7446 7.80218 35.1084 8.25096 35.1084C8.69974 35.1084 9.06358 34.7446 9.06358 34.2958V17.6385L13.7994 20.3089V41.6305ZM9.90489 16.2472L15.3569 13.1731L15.3369 15.0366C15.3345 15.2535 15.419 15.4624 15.5717 15.6167C15.7243 15.771 15.9324 15.8579 16.1494 15.8579H20.0089L14.6118 18.9014L9.90489 16.2472ZM21.1871 45.7962L15.4246 42.5468V21.2253L21.1871 24.4747V45.7962ZM41.7479 35.119L22.8123 45.7962V24.4747L33.3412 18.5377C33.7321 18.3172 33.8703 17.8216 33.65 17.4307C33.4296 17.0397 32.9341 16.9016 32.543 17.1219L21.9997 23.067L16.2661 19.834L23.476 15.7682C23.5269 15.742 23.5749 15.7105 23.6188 15.6745C23.8011 15.5255 23.9174 15.2988 23.9174 15.0449C23.9174 14.5962 23.5537 14.2323 23.1048 14.2323H16.9706L16.9968 11.8121C17.0047 11.651 16.9648 11.4862 16.8727 11.3399C16.6416 10.9732 16.1635 10.8523 15.786 11.0652L8.2504 15.314L3.09331 12.4063L21.9998 1.74548L27.161 4.65576L19.9945 8.69704C19.7315 8.83157 19.5515 9.10532 19.5515 9.42098C19.5515 9.86976 19.9154 10.2336 20.3642 10.2336H26.4984L26.4721 12.657C26.4647 12.8216 26.5071 12.9896 26.6035 13.1372C26.7588 13.3748 27.0185 13.5056 27.2846 13.5056C27.4201 13.5056 27.5574 13.4716 27.6832 13.4007L35.1766 9.17554L40.906 12.4062L35.8286 15.2692C35.4377 15.4897 35.2995 15.9853 35.5198 16.3762C35.7402 16.7671 36.236 16.9052 36.6268 16.685L41.7479 13.7973V35.119Z" fill="#FF7700"/>
</svg>
