<svg width="22" height="24" viewBox="0 0 22 24" fill="none" xmlns="http://www.w3.org/2000/svg">
<path d="M21.48 5.84922L11.1997 0.0523828C11.0758 -0.0174609 10.9244 -0.0174609 10.8006 0.0523828L0.520195 5.84922C0.392461 5.92127 0.313477 6.05655 0.313477 6.20313V17.7968C0.313477 17.9434 0.392461 18.0787 0.520195 18.1507L7.10697 21.8648C7.10983 21.8665 7.11264 21.8681 7.1156 21.8697L10.8006 23.9476C10.8625 23.9825 10.9314 24 11.0002 24C11.069 24 11.1377 23.9826 11.1998 23.9476L21.4801 18.1508C21.6079 18.0787 21.6869 17.9434 21.6869 17.7968V6.20317C21.6868 6.0565 21.6077 5.92122 21.48 5.84922ZM16.7614 4.12136L14.0564 5.64658L14.0665 4.71485C14.0676 4.60633 14.0253 4.50189 13.949 4.42474C13.8727 4.34758 13.7687 4.30413 13.6602 4.30413H11.7305L14.4079 2.79424L16.7614 4.12136ZM6.89992 20.8153L4.53204 19.4801V18.5022C4.53204 18.2778 4.35011 18.0959 4.12572 18.0959C3.90133 18.0959 3.71941 18.2778 3.71941 18.5022V19.0219L1.12596 17.5595V6.89866L3.71941 8.36106V17.1479C3.71941 17.3723 3.90133 17.5542 4.12572 17.5542C4.35011 17.5542 4.53204 17.3723 4.53204 17.1479V8.81927L6.89992 10.1545V20.8153ZM4.95269 8.12359L7.67871 6.58656L7.66867 7.5183C7.6675 7.62677 7.70974 7.7312 7.7861 7.80836C7.86241 7.88552 7.96642 7.92897 8.07494 7.92897H10.0047L7.30614 9.45072L4.95269 8.12359ZM10.5938 22.8981L7.71255 21.2734V10.6127L10.5938 12.2373V22.8981ZM20.8742 17.5595L11.4064 22.8981V12.2373L16.6708 9.26884C16.8663 9.15859 16.9354 8.91081 16.8252 8.71534C16.715 8.51987 16.4673 8.45078 16.2717 8.56094L11.0001 11.5335L8.1333 9.91698L11.7383 7.88411C11.7637 7.87099 11.7877 7.85524 11.8097 7.83723C11.9008 7.76275 11.959 7.64941 11.959 7.52247C11.959 7.29808 11.7771 7.11616 11.5526 7.11616H8.48556L8.49864 5.90603C8.50258 5.8255 8.48266 5.7431 8.43658 5.66997C8.32103 5.4866 8.08197 5.42617 7.89325 5.53258L4.12544 7.657L1.5469 6.20317L11.0001 0.872741L13.5807 2.32788L9.99752 4.34852C9.86598 4.41578 9.77598 4.55266 9.77598 4.71049C9.77598 4.93488 9.95795 5.1168 10.1823 5.1168H13.2494L13.2363 6.32852C13.2326 6.41078 13.2538 6.49478 13.302 6.56861C13.3796 6.68739 13.5095 6.75278 13.6426 6.75278C13.7103 6.75278 13.7789 6.73581 13.8418 6.70033L17.5885 4.58777L20.4533 6.20308L17.9146 7.63459C17.7191 7.74484 17.65 7.99263 17.7602 8.18809C17.8704 8.38356 18.1182 8.45261 18.3137 8.3425L20.8742 6.89866V17.5595Z" fill="#FF7700"/>
<path d="M16.1858 13.0067L15.0784 12.2371C14.9843 12.1718 14.8671 12.1492 14.7555 12.1748C14.6438 12.2005 14.5484 12.272 14.4923 12.3718L13.3495 14.4067C13.2396 14.6023 13.3091 14.85 13.5047 14.9599C13.5677 14.9953 13.636 15.012 13.7033 15.012C13.8454 15.012 13.9834 14.9373 14.058 14.8046L14.4403 14.124V19.1872C14.4403 19.4116 14.6221 19.5936 14.8466 19.5936C15.071 19.5936 15.2529 19.4116 15.2529 19.1872V13.3478L15.7222 13.674C15.9066 13.8021 16.1596 13.7564 16.2877 13.5721C16.4156 13.3879 16.3701 13.1348 16.1858 13.0067Z" fill="#FF7700"/>
<path d="M18.988 15.245C18.7922 15.1351 18.5447 15.2046 18.4348 15.4002L18.0524 16.0809V11.0177C18.0524 10.7933 17.8705 10.6114 17.6461 10.6114C17.4217 10.6114 17.2398 10.7933 17.2398 11.0177V16.8571L16.7705 16.5309C16.586 16.4028 16.333 16.4485 16.205 16.6327C16.077 16.8169 16.1225 17.0701 16.3068 17.1982L17.4143 17.9678C17.4829 18.0155 17.564 18.0405 17.6461 18.0405C17.6765 18.0405 17.707 18.037 17.7371 18.0301C17.8488 18.0045 17.9443 17.933 18.0003 17.8331L19.1432 15.7982C19.2532 15.6025 19.1837 15.3549 18.988 15.245Z" fill="#FF7700"/>
</svg>
