<svg width="24" height="16" viewBox="0 0 24 16" fill="none" xmlns="http://www.w3.org/2000/svg">
<path d="M22.32 6.78296L21.6984 4.16292C21.8684 4.12488 21.9959 3.966 21.9959 3.77565V3.35322C21.9959 2.43602 21.2878 1.68985 20.4176 1.68985H17.5867V0.818494C17.5867 0.367156 17.2383 0 16.8101 0H2.37994C1.95169 0 1.60332 0.367156 1.60332 0.818494V8.00007C1.60332 8.21878 1.77155 8.39613 1.97911 8.39613C2.18663 8.39613 2.35491 8.21883 2.35491 8.00007V0.818494C2.35491 0.80397 2.36611 0.792113 2.37994 0.792113H16.81C16.8238 0.792113 16.835 0.804019 16.835 0.818494V8.00017C16.835 8.21888 17.0033 8.39623 17.2108 8.39623C17.4184 8.39623 17.5866 8.21893 17.5866 8.00017V7.55121H22.0196C22.02 7.55121 22.0202 7.55131 22.0206 7.55131C22.0209 7.55131 22.0213 7.55126 22.0216 7.55126C22.5671 7.55165 23.0302 7.92898 23.1893 8.44894H22.0208C21.8133 8.44894 21.645 8.62625 21.645 8.845V9.68987C21.645 10.3741 22.1732 10.9308 22.8225 10.9308H23.2484V12.6734H22.2658C21.943 11.6911 21.057 10.9836 20.0166 10.9836C18.9763 10.9836 18.0902 11.6911 17.7675 12.6734H17.5865V9.68982C17.5865 9.47112 17.4183 9.29377 17.2108 9.29377C17.0032 9.29377 16.835 9.47107 16.835 9.68982V12.6733H9.03831C8.71553 11.691 7.82955 10.9835 6.78915 10.9835C5.74876 10.9835 4.86273 11.691 4.53999 12.6733H2.37994C2.36611 12.6733 2.35491 12.6614 2.35491 12.6469V11.7756H3.9833C4.19082 11.7756 4.3591 11.5983 4.3591 11.3795C4.3591 11.1608 4.19087 10.9835 3.9833 10.9835H1.97939C1.9793 10.9835 1.97925 10.9835 1.97916 10.9835C1.97907 10.9835 1.97902 10.9835 1.97893 10.9835H0.375798C0.168282 10.9835 0 11.1608 0 11.3795C0 11.5983 0.168235 11.7756 0.375798 11.7756H1.60336V12.6469C1.60336 13.0982 1.95174 13.4654 2.37999 13.4654H4.40987C4.40977 13.4742 4.40921 13.483 4.40921 13.4918C4.40921 14.8748 5.47689 16 6.78915 16C8.10142 16 9.1691 14.8748 9.1691 13.4918C9.1691 13.483 9.16853 13.4742 9.16844 13.4654H17.6374C17.6373 13.4742 17.6367 13.483 17.6367 13.4918C17.6367 14.8748 18.7044 16 20.0166 16C21.3289 16 22.3966 14.8748 22.3966 13.4918C22.3966 13.483 22.396 13.4742 22.3959 13.4654H23.6242C23.8317 13.4654 24 13.2881 24 13.0693V8.8449C24 7.80192 23.2699 6.93536 22.32 6.78296ZM17.5867 2.48191H20.4176C20.8734 2.48191 21.2443 2.87278 21.2443 3.35322V3.3796H17.5867V2.48191ZM17.5867 6.75914V4.17166H20.9258L21.5396 6.75914H17.5867ZM6.78915 15.208C5.89126 15.208 5.16076 14.4382 5.16076 13.4919C5.16076 12.5455 5.89126 11.7757 6.78915 11.7757C7.68705 11.7757 8.41755 12.5455 8.41755 13.4919C8.41755 14.4382 7.68705 15.208 6.78915 15.208ZM20.0167 15.208C19.1189 15.208 18.3883 14.4382 18.3883 13.4919C18.3883 12.5455 19.1189 11.7757 20.0167 11.7757C20.9146 11.7757 21.6451 12.5455 21.6451 13.4919C21.6451 14.4382 20.9146 15.208 20.0167 15.208ZM23.2485 10.1387H22.8226C22.5877 10.1387 22.3967 9.93733 22.3967 9.68982V9.24096H23.2485V10.1387H23.2485Z" fill="#FF7700"/>
</svg>
