<svg width="48" height="32" viewBox="0 0 48 32" fill="none" xmlns="http://www.w3.org/2000/svg">
<path d="M44.6399 13.5659L43.3969 8.32583C43.7367 8.24975 43.9917 7.932 43.9917 7.55131V6.70643C43.9917 4.87203 42.5756 3.3797 40.8351 3.3797H35.1734V1.63699C35.1734 0.734313 34.4766 0 33.6201 0H4.75988C3.90338 0 3.20663 0.734313 3.20663 1.63699V16.0002C3.20663 16.4376 3.5431 16.7923 3.95823 16.7923C4.37326 16.7923 4.70982 16.4377 4.70982 16.0002V1.63699C4.70982 1.60794 4.73223 1.58423 4.75988 1.58423H33.62C33.6477 1.58423 33.6701 1.60804 33.6701 1.63699V16.0003C33.6701 16.4378 34.0066 16.7925 34.4217 16.7925C34.8367 16.7925 35.1733 16.4379 35.1733 16.0003V15.1024H44.0392C44.0399 15.1024 44.0405 15.1026 44.0411 15.1026C44.0419 15.1026 44.0425 15.1025 44.0432 15.1025C45.1342 15.1033 46.0605 15.858 46.3787 16.8979H44.0417C43.6267 16.8979 43.2901 17.2525 43.2901 17.69V19.3797C43.2901 20.7483 44.3465 21.8616 45.645 21.8616H46.4968V25.3467H44.5316C43.8861 23.3821 42.1141 21.9671 40.0333 21.9671C37.9525 21.9671 36.1804 23.3821 35.535 25.3467H35.1731V19.3796C35.1731 18.9422 34.8366 18.5875 34.4215 18.5875C34.0065 18.5875 33.6699 18.9421 33.6699 19.3796V25.3465H18.0766C17.4311 23.3819 15.6591 21.9669 13.5783 21.9669C11.4975 21.9669 9.72546 23.3819 9.07999 25.3465H4.75988C4.73223 25.3465 4.70982 25.3227 4.70982 25.2938V23.5512H7.96661C8.38164 23.5512 8.71821 23.1966 8.71821 22.759C8.71821 22.3215 8.38173 21.9669 7.96661 21.9669H3.95879C3.9586 21.9669 3.95851 21.9669 3.95832 21.9669C3.95813 21.9669 3.95804 21.9669 3.95785 21.9669H0.751595C0.336563 21.9669 0 22.3215 0 22.759C0 23.1966 0.336469 23.5512 0.751595 23.5512H3.20673V25.2938C3.20673 26.1964 3.90348 26.9308 4.75998 26.9308H8.81974C8.81955 26.9483 8.81842 26.9659 8.81842 26.9835C8.81842 29.7495 10.9538 32 13.5783 32C16.2028 32 18.3382 29.7495 18.3382 26.9835C18.3382 26.9659 18.3371 26.9483 18.3369 26.9308H35.2747C35.2745 26.9483 35.2734 26.9659 35.2734 26.9835C35.2734 29.7495 37.4088 32 40.0333 32C42.6578 32 44.7932 29.7495 44.7932 26.9835C44.7932 26.9659 44.7921 26.9483 44.7919 26.9308H47.2484C47.6634 26.9308 48 26.5761 48 26.1386V17.6898C48.0001 15.6038 46.5397 13.8707 44.6399 13.5659ZM35.1734 4.96382H40.8351C41.7469 4.96382 42.4886 5.74556 42.4886 6.70643V6.75919H35.1734V4.96382ZM35.1734 13.5183V8.34332H41.8517L43.0792 13.5183H35.1734ZM13.5783 30.4161C11.7825 30.4161 10.3215 28.8764 10.3215 26.9837C10.3215 25.091 11.7825 23.5514 13.5783 23.5514C15.3741 23.5514 16.8351 25.091 16.8351 26.9837C16.8351 28.8764 15.3741 30.4161 13.5783 30.4161ZM40.0335 30.4161C38.2377 30.4161 36.7767 28.8764 36.7767 26.9837C36.7767 25.091 38.2377 23.5514 40.0335 23.5514C41.8293 23.5514 43.2903 25.091 43.2903 26.9837C43.2903 28.8764 41.8293 30.4161 40.0335 30.4161ZM46.497 20.2774H45.6452C45.1755 20.2774 44.7934 19.8747 44.7934 19.3796V18.4819H46.4969V20.2774H46.497Z" fill="#FF7700"/>
</svg>
