<svg width="22" height="17" viewBox="0 0 22 17" fill="none" xmlns="http://www.w3.org/2000/svg">
<path d="M17.8568 16.75H7.20674C6.21674 16.75 5.26674 16.33 4.59674 15.6C3.92674 14.87 3.58675 13.89 3.66675 12.9L4.49675 2.94C4.52675 2.63 4.41674 2.33001 4.20674 2.10001C3.99674 1.87001 3.70674 1.75 3.39674 1.75H1.66675C1.25675 1.75 0.916748 1.41 0.916748 1C0.916748 0.59 1.25675 0.25 1.66675 0.25H3.40675C4.13675 0.25 4.82674 0.559996 5.31674 1.09C5.58674 1.39 5.78674 1.74 5.89674 2.13H18.3867C19.3967 2.13 20.3267 2.53 21.0067 3.25C21.6767 3.98 22.0168 4.93 21.9368 5.94L21.3967 13.44C21.2867 15.27 19.6868 16.75 17.8568 16.75ZM5.94675 3.62L5.16675 13.02C5.11675 13.6 5.30675 14.15 5.69675 14.58C6.08675 15.01 6.62674 15.24 7.20674 15.24H17.8568C18.8968 15.24 19.8367 14.36 19.9167 13.32L20.4567 5.82001C20.4967 5.23001 20.3067 4.67001 19.9167 4.26001C19.5267 3.84001 18.9867 3.60999 18.3967 3.60999H5.94675V3.62Z" fill="url(#paint0_linear_630_130)"/>
<defs>
<linearGradient id="paint0_linear_630_130" x1="11.4325" y1="0.25" x2="11.4325" y2="16.75" gradientUnits="userSpaceOnUse">
<stop stop-color="#FF8000"/>
<stop offset="0.463542" stop-color="#FF6C00"/>
<stop offset="1" stop-color="#FF5500"/>
</linearGradient>
</defs>
</svg>
