<svg width="49" height="30" viewBox="0 0 49 30" fill="none" xmlns="http://www.w3.org/2000/svg">
<path d="M26.0119 12.4133H3.56944C1.96884 12.4133 0.666748 13.6963 0.666748 15.2732V26.7844C0.666748 28.3613 1.96884 29.6441 3.56944 29.6441H21.7731C22.2171 29.6441 22.577 29.2895 22.577 28.8521C22.577 28.4147 22.2171 28.0601 21.7731 28.0601H3.56944C2.85534 28.0601 2.27456 27.4878 2.27456 26.7844V21.1196H27.3067V26.7844C27.3067 27.4879 26.7259 28.0601 26.0119 28.0601H24.4526C24.0086 28.0601 23.6487 28.4147 23.6487 28.8521C23.6487 29.2895 24.0086 29.6441 24.4526 29.6441H26.0119C27.6125 29.6441 28.9146 28.3613 28.9146 26.7844V15.2732C28.9146 13.6963 27.6125 12.4133 26.0119 12.4133ZM27.3068 19.5356H2.27456V17.4182H7.0889C7.5329 17.4182 7.89281 17.0637 7.89281 16.6262C7.89281 16.1888 7.5329 15.8342 7.0889 15.8342H2.27456V15.2732C2.27456 14.5697 2.85544 13.9975 3.56944 13.9975H26.0119C26.726 13.9975 27.3067 14.5697 27.3067 15.2732V15.8342H9.76847C9.32447 15.8342 8.96456 16.1888 8.96456 16.6262C8.96456 17.0637 9.32447 17.4182 9.76847 17.4182H27.3069L27.3068 19.5356Z" fill="#FF7700"/>
<path d="M35.1711 0.355957H10.8061C10.3621 0.355957 10.0022 0.710541 10.0022 1.14797V10.4007C10.0022 10.8381 10.3621 11.1927 10.8061 11.1927C11.2501 11.1927 11.61 10.8381 11.61 10.4007V6.76276C14.1419 6.41252 16.1499 4.43436 16.5053 1.9399H35.1711C35.6151 1.9399 35.975 1.58532 35.975 1.14788C35.9749 0.710541 35.615 0.355957 35.1711 0.355957ZM11.61 5.15757V1.93999H14.8759C14.5518 3.5595 13.2539 4.83818 11.61 5.15757Z" fill="#FF7700"/>
<path d="M47.8629 0.355957H37.8509C37.4069 0.355957 37.047 0.710541 37.047 1.14797C37.047 1.58541 37.4069 1.93999 37.8509 1.93999H42.165C42.5204 4.43436 44.5278 6.41261 47.0591 6.76285V13.3668C44.5278 13.7171 42.5204 15.6953 42.165 18.1897H30.957C30.513 18.1897 30.1531 18.5443 30.1531 18.9817C30.1531 19.4192 30.513 19.7737 30.957 19.7737H47.8629C48.3069 19.7737 48.6668 19.4192 48.6668 18.9817V1.14797C48.6668 0.710541 48.3069 0.355957 47.8629 0.355957ZM47.059 5.15748C45.4157 4.83809 44.1182 3.5594 43.7942 1.93999H47.059V5.15748ZM47.059 18.1896H43.7942C44.1182 16.5701 45.4157 15.2914 47.059 14.972V18.1896Z" fill="#FF7700"/>
<path d="M29.3345 4.41418C25.2545 4.41418 21.9351 6.94883 21.9351 10.0642C21.9351 10.1966 21.9416 10.334 21.9544 10.4724C21.9946 10.908 22.3857 11.2285 22.8278 11.1894C23.27 11.1498 23.5958 10.7645 23.5556 10.3289C23.5472 10.238 23.543 10.1489 23.543 10.0642C23.543 7.82222 26.1411 5.99813 29.3346 5.99813C32.5286 5.99813 35.1273 7.82212 35.1273 10.0642C35.1271 11.9051 33.3508 13.5221 30.8074 13.996C30.3712 14.0773 30.0844 14.4916 30.167 14.9214C30.24 15.3015 30.5771 15.5663 30.956 15.5663C31.0055 15.5663 31.0559 15.5617 31.1062 15.5523C34.4203 14.9347 36.7349 12.6779 36.7349 10.0642C36.735 6.94883 33.4151 4.41418 29.3345 4.41418Z" fill="#FF7700"/>
<path d="M9.44 22.7322H4.31685C3.87285 22.7322 3.51294 23.0868 3.51294 23.5242C3.51294 23.9616 3.87285 24.3162 4.31685 24.3162H9.44C9.884 24.3162 10.2439 23.9616 10.2439 23.5242C10.2438 23.0869 9.88391 22.7322 9.44 22.7322Z" fill="#FF7700"/>
</svg>
