<svg width="24" height="24" viewBox="0 0 24 24" fill="none" xmlns="http://www.w3.org/2000/svg">
<path d="M23.8086 19.4507L17.9353 15.5359C17.787 15.4371 17.5931 15.44 17.4479 15.5432L14.464 17.6646C13.0346 16.8164 11.442 15.5415 9.95018 14.0488C8.45707 12.5557 7.18254 10.9635 6.33537 9.53602L8.45683 6.5521C8.5601 6.40684 8.56296 6.21296 8.4641 6.0647L4.54822 0.191409C4.42995 0.013941 4.19923 -0.0498557 4.00653 0.0414097L2.04908 0.96897C1.95247 1.01477 1.8764 1.09488 1.83571 1.19374L0.0324308 5.57288C-0.0188503 5.69729 -0.00891284 5.83852 0.0593839 5.95445L1.2058 7.90369C1.40422 8.241 1.61488 8.58446 1.8321 8.92467C1.95983 9.12478 2.22547 9.18338 2.42568 9.05569C2.62574 8.92796 2.68443 8.66217 2.55664 8.46211C2.3451 8.13075 2.13993 7.79621 1.9468 7.4679L0.908617 5.70273L2.32007 2.27523L6.2127 8.22497L5.47442 9.26325C5.37762 9.39938 5.36834 9.57928 5.45084 9.72455C6.33129 11.2762 7.7134 13.0277 9.34221 14.6565C10.9695 16.2849 12.7215 17.6673 14.2754 18.5491C14.4207 18.6316 14.6006 18.6223 14.7367 18.5255L15.775 17.7872L16.9175 18.5347C16.9901 18.5823 17.0717 18.605 17.1525 18.605C17.2926 18.605 17.4301 18.5365 17.5126 18.4104C17.6426 18.2117 17.5868 17.9453 17.3882 17.8154L16.5275 17.2523L17.7046 16.4153L23.0227 19.96L22.4652 21.1371L18.6043 18.6111C18.4056 18.4811 18.1392 18.5367 18.0092 18.7355C17.8793 18.9341 17.9349 19.2005 18.1336 19.3304L21.7246 21.6799L18.2973 23.0914L16.5321 22.0522C14.2134 20.6884 11.7816 18.8373 9.49952 16.6991C7.23715 14.5793 5.16364 12.2174 3.5031 9.86874C3.36608 9.67495 3.09805 9.62883 2.90399 9.76594C2.71016 9.90295 2.66408 10.1712 2.80119 10.365C6.29351 15.3047 11.2637 19.9508 16.0961 22.7931L18.0454 23.9406C18.1124 23.98 18.1877 24 18.2635 24C18.3189 24 18.3745 23.9893 18.4271 23.9676L22.8062 22.1643C22.9051 22.1236 22.9852 22.0474 23.031 21.9508L23.9586 19.9925C24.0499 19.7996 23.986 19.569 23.8086 19.4507ZM2.86283 1.53466L4.03902 0.977314L7.58463 6.29532L6.74768 7.47249L2.86283 1.53466Z" fill="#FF7700"/>
</svg>
