<svg width="49" height="48" viewBox="0 0 49 48" fill="none" xmlns="http://www.w3.org/2000/svg">
<path d="M47.9504 38.9014L36.2038 31.0718C35.9072 30.8742 35.5195 30.8799 35.229 31.0864L29.2612 35.3293C26.4025 33.6328 23.2172 31.0831 20.2336 28.0976C17.2474 25.1114 14.6983 21.9269 13.004 19.072L17.2469 13.1042C17.4535 12.8137 17.4592 12.4259 17.2615 12.1294L9.42969 0.382819C9.19316 0.0278821 8.73172 -0.0997114 8.34632 0.0828195L4.43142 1.93794C4.2382 2.02953 4.08604 2.18975 4.00467 2.38747L0.398114 11.1458C0.295551 11.3946 0.315426 11.677 0.45202 11.9089L2.74486 15.8074C3.1417 16.482 3.56301 17.1689 3.99745 17.8493C4.25292 18.2496 4.7842 18.3668 5.1846 18.1114C5.58473 17.8559 5.7021 17.3243 5.44654 16.9242C5.02345 16.2615 4.6131 15.5924 4.22686 14.9358L2.15049 11.4055L4.97339 4.55047L12.7587 16.4499L11.2821 18.5265C11.0885 18.7988 11.0699 19.1586 11.2349 19.4491C12.9958 22.5523 15.7601 26.0555 19.0177 29.3131C22.2722 32.5698 25.7762 35.3346 28.8841 37.0982C29.1746 37.2632 29.5345 37.2446 29.8067 37.051L31.8833 35.5744L34.1683 37.0695C34.3135 37.1645 34.4767 37.2099 34.6383 37.2099C34.9185 37.2099 35.1934 37.0729 35.3584 36.8207C35.6184 36.4234 35.5069 35.8906 35.1097 35.6308L33.3882 34.5046L35.7425 32.8307L46.3786 39.92L45.2636 42.2742L37.5418 37.2222C37.1444 36.9621 36.6116 37.0735 36.3517 37.4709C36.0918 37.8682 36.2031 38.4009 36.6004 38.6609L43.7825 43.3599L36.9279 46.1828L33.3974 44.1044C28.7601 41.3767 23.8964 37.6746 19.3323 33.3982C14.8076 29.1587 10.6605 24.4348 7.33944 19.7375C7.06541 19.3499 6.52935 19.2577 6.14123 19.5319C5.75357 19.8059 5.66142 20.3424 5.93563 20.7301C12.9203 30.6094 22.8606 39.9016 32.5255 45.5863L36.4241 47.8812C36.558 47.96 36.7087 48 36.8602 48C36.9711 48 37.0823 47.9786 37.1875 47.9353L45.9457 44.3286C46.1435 44.2472 46.3037 44.0949 46.3953 43.9017L48.2505 39.9849C48.433 39.5992 48.3052 39.1381 47.9504 38.9014ZM6.05891 3.06931L8.41128 1.95463L15.5025 12.5906L13.8286 14.945L6.05891 3.06931Z" fill="#FF7700"/>
</svg>
